<?xml version="1.0" standalone="no"?>
<!DOCTYPE svg PUBLIC "-//W3C//DTD SVG 20010904//EN"
 "http://www.w3.org/TR/2001/REC-SVG-20010904/DTD/svg10.dtd">
<svg version="1.0" xmlns="http://www.w3.org/2000/svg"
 width="700.000000pt" height="700.000000pt" viewBox="0 0 700.000000 700.000000"
 preserveAspectRatio="xMidYMid meet">
<metadata>
Created by potrace 1.11, written by Peter Selinger 2001-2013
</metadata>
<g transform="translate(0.000000,700.000000) scale(0.100000,-0.100000)"
fill="#000000" stroke="none">
<path d="M1590 6989 c-471 -41 -916 -284 -1215 -664 -205 -261 -331 -579 -364
-919 -15 -151 -15 -3661 0 -3812 57 -586 390 -1092 906 -1377 172 -95 395
-169 599 -199 71 -10 475 -13 1984 -13 2053 0 1963 -2 2187 56 303 78 557 222
787 447 297 291 473 659 515 1081 15 143 15 3679 0 3822 -54 532 -330 996
-767 1289 -248 166 -526 264 -827 289 -145 13 -3662 12 -3805 0z m1878 -2074
c216 -51 317 -203 283 -426 -43 -276 -282 -703 -638 -1142 l-73 -90 82 -27
c46 -15 116 -41 157 -59 l74 -31 121 118 c178 173 356 286 558 353 113 38 186
42 244 12 58 -31 104 -86 104 -126 -1 -181 -536 -568 -834 -603 -54 -7 -57 -8
-92 -62 -65 -97 -90 -186 -59 -212 94 -78 417 90 912 473 100 77 102 81 194
230 96 158 297 464 380 577 26 36 46 66 45 67 -8 8 -163 -44 -232 -77 -92 -44
-159 -108 -149 -141 6 -17 4 -18 -21 -9 -104 40 -150 146 -89 210 70 73 272
136 557 175 40 5 53 13 81 48 18 23 78 98 132 167 119 150 215 246 277 280 44
23 50 24 105 12 60 -12 148 -65 171 -102 11 -19 10 -20 -26 -20 -46 0 -90 -30
-173 -116 -55 -57 -189 -223 -189 -234 0 -3 183 -5 408 -6 426 -1 607 -12 892
-54 270 -41 247 -44 -135 -20 -199 13 -606 13 -797 0 -158 -11 -416 -37 -456
-47 -54 -13 -502 -684 -731 -1096 -81 -145 -141 -267 -141 -287 0 -17 24 -12
76 16 100 53 277 199 568 470 91 83 141 123 147 117 7 -7 -49 -73 -164 -194
-271 -287 -538 -524 -645 -571 -48 -22 -78 -17 -132 22 -37 26 -90 107 -90
137 0 42 40 144 110 285 l69 137 -107 -92 c-282 -243 -539 -410 -724 -471 -84
-28 -176 -38 -217 -25 -70 23 -138 84 -161 144 -29 77 33 255 146 417 l53 77
-92 30 c-51 16 -126 37 -167 46 l-75 16 -25 -29 c-145 -167 -234 -263 -354
-379 -596 -580 -1274 -1002 -1786 -1110 -119 -25 -334 -25 -411 0 -165 55
-247 208 -209 391 49 239 342 550 737 785 513 304 1092 469 1573 447 80 -3
156 -9 170 -12 23 -5 40 13 171 173 476 580 718 986 719 1203 0 107 -59 163
-188 179 -187 23 -433 -57 -726 -236 -431 -263 -954 -801 -960 -989 -2 -58 15
-61 146 -35 62 13 124 25 138 28 45 8 -70 -55 -160 -87 -171 -63 -270 -46
-319 54 -23 46 -24 53 -13 114 72 422 966 1086 1625 1207 99 18 259 18 335 0z
m2583 -2508 c187 -64 330 -221 368 -405 80 -388 -273 -737 -656 -647 -160 38
-287 136 -364 282 l-31 58 -1861 5 -1861 5 289 190 289 190 1576 5 1575 5 29
55 c62 115 205 230 333 265 81 22 237 18 314 -8z"/>
<path d="M4229 3537 c-202 -83 -494 -318 -643 -517 -57 -76 -49 -84 44 -45
162 68 408 260 557 434 53 62 113 152 101 151 -2 0 -28 -11 -59 -23z"/>
<path d="M2195 3251 c-503 -79 -1082 -330 -1446 -628 -156 -128 -293 -296
-338 -418 -92 -247 -5 -362 253 -334 363 41 912 348 1461 818 210 180 569 550
551 569 -4 4 -87 8 -184 9 -133 2 -207 -2 -297 -16z"/>
<path d="M5810 2151 c-149 -49 -229 -195 -187 -342 39 -132 179 -217 313 -189
156 33 254 192 210 342 -19 65 -80 139 -140 170 -44 23 -153 33 -196 19z"/>
</g>
</svg>
