<?xml version="1.0" encoding="UTF-8" standalone="no"?><!DOCTYPE svg PUBLIC "-//W3C//DTD SVG 1.1//EN" "http://www.w3.org/Graphics/SVG/1.1/DTD/svg11.dtd"><svg width="100%" height="100%" viewBox="0 0 888 252" version="1.1" xmlns="http://www.w3.org/2000/svg" xmlns:xlink="http://www.w3.org/1999/xlink" xml:space="preserve" xmlns:serif="http://www.serif.com/" style="fill-rule:evenodd;clip-rule:evenodd;stroke-linejoin:round;stroke-miterlimit:2;"><g><path d="M169.828,115.195c-5.58,-0.9 -11.16,-1.26 -17.1,-1.26c-63.18,-0 -141.3,49.14 -138.06,84.06c1.44,13.32 12.42,18.18 25.56,17.82c47.52,-0.9 116.28,-56.7 146.7,-95.22c11.52,2.16 17.64,4.68 27,8.1c0.18,-0 0.18,-0.18 0.18,-0.18c-5.4,-4.14 -17.82,-8.82 -25.02,-10.62c6.84,-7.74 44.46,-53.28 44.46,-81.36c-0,-10.08 -4.86,-18 -17.82,-21.06c-2.88,-0.72 -6.12,-1.08 -9.36,-1.08c-41.94,-0 -112.5,50.94 -111.96,78.66c0.18,6.3 4.86,9.9 10.8,9.72c3.6,-0 12.96,-2.16 22.32,-8.64c-0,-0 -11.7,3.6 -17.82,3.6c-2.7,-0 -2.7,-1.62 -2.52,-3.06c3.06,-18.9 63.36,-76.14 100.44,-76.14c2.88,-0 5.58,0.36 8.1,1.08c5.4,1.44 7.56,5.22 7.56,10.44c-0,22.32 -42.12,71.46 -53.46,85.14Zm-132.48,88.56c-6.66,-0 -12.42,-3.06 -12.6,-9.72c-0.54,-36.72 79.2,-77.22 129.78,-77.22c4.5,-0 8.82,0.36 12.78,1.08c-29.88,37.44 -94.14,85.86 -129.96,85.86Z" style="fill:#fff;fill-rule:nonzero;"/><path d="M217.348,140.575c20.16,-0.54 54.72,-26.46 54.72,-37.62c-0,-5.04 -8.28,-9.18 -10.98,-9.18c-7.74,-0 -23.76,5.58 -38.7,18c-11.34,9.54 -20.52,20.88 -24.84,31.14c-1.44,3.96 -2.52,7.56 -2.52,11.88c-0,4.86 7.2,11.34 12.78,11.34c23.94,-0 59.76,-34.38 73.26,-46.98c0.54,-0.54 -0.72,-1.44 -1.26,-1.08c-18.18,15.12 -51.12,40.14 -64.26,40.14c-3.96,-0 -5.58,-1.26 -5.4,-3.42c0.54,-4.68 3.96,-10.44 7.2,-14.22Zm48.96,-41.4c-1.08,6.84 -30.96,36 -46.62,37.8c5.94,-9.54 26.64,-31.32 46.62,-37.8Z" style="fill:#fff;fill-rule:nonzero;"/><path d="M312.748,63.895c-20.16,2.34 -39.96,7.38 -39.24,15.48c0.54,5.76 6.66,9.18 9.54,9.18c-4.68,-2.7 5.94,-11.34 23.04,-14.76c-6.66,8.82 -11.88,16.74 -16.74,24.12c-22.14,34.2 -30.24,51.84 -30.24,57.24c-0,1.98 0.36,2.34 0.54,2.7c1.08,2.7 5.04,6.48 6.48,7.2c1.62,0.9 3.42,1.62 5.76,0.72c10.8,-3.96 42.12,-36.72 50.94,-46.8c0.54,-0.54 -0.18,-1.98 -1.26,-1.08c-10.62,9.72 -40.5,39.06 -48.24,38.16c4.32,-11.52 17.82,-34.38 33.48,-58.14c7.2,-10.62 13.14,-19.62 19.8,-27.9c30.06,-4.5 63,-4.68 98.64,-1.62c2.16,0.18 1.44,-0.18 -0,-0.54c-25.74,-5.4 -63.72,-6.84 -92.7,-5.4c7.92,-10.26 18.54,-24.66 24.3,-21.96c3.42,1.98 -3.78,-8.46 -13.86,-7.92c-1.62,-0 -3.96,1.44 -6.66,3.6c-4.5,3.6 -9.54,9.36 -23.58,27.72Z" style="fill:#fff;fill-rule:nonzero;"/><path d="M520.828,26.995c2.88,-2.88 4.86,-4.86 8.64,-5.4c-0.9,-1.8 -7.38,-7.92 -13.32,-7.92c-4.14,-0 -7.92,3.24 -14.4,10.08c-9.72,10.26 -60.3,62.28 -78.84,80.82l-0.18,-0c-23.94,0.9 -89.46,6.12 -88.74,20.88c0.36,7.92 10.08,13.32 10.26,9.9c-0.36,-3.6 21.6,-17.28 69.48,-22.5c-26.1,23.22 -80.64,80.46 -119.16,80.46c-7.74,-0 -13.32,-3.06 -13.32,-10.98c-0,-2.34 1.62,-5.4 3.06,-6.66c-3.06,-0 -7.2,4.68 -7.2,12.24c-0,12.96 11.7,18.9 21.42,18.9c39.96,-0 99.72,-71.46 124.92,-95.04c8.46,-0.9 16.56,-1.08 24.84,-1.08l6.84,-0c-8.1,17.64 -20.34,49.14 -18.18,65.88c0.54,4.86 7.38,10.44 12.78,10.44c5.58,-0 12.06,-3.24 18.54,-9.18c-4.32,1.44 -10.08,4.32 -15.48,4.32c-1.08,-0 -2.34,-0.18 -2.52,-2.16c-1.26,-11.88 14.4,-52.56 21.96,-68.4l0.18,-0c16.92,1.26 33.3,4.68 33.3,4.32c-2.88,-2.52 -19.8,-6.48 -31.68,-8.1c14.22,-34.56 36.54,-69.84 46.8,-80.82Zm-26.28,10.98c-10.44,14.22 -29.88,51.48 -37.26,67.5c-8.82,-0.72 -17.46,-1.08 -25.92,-1.08c59.4,-62.82 61.2,-64.62 63.18,-66.42Z" style="fill:#fff;fill-rule:nonzero;"/><path d="M547.288,93.775c-10.8,-0 -23.04,5.76 -36.9,14.94c-19.08,12.42 -35.28,35.46 -35.28,45.18c-0,4.14 5.76,12.24 9,12.24c9.36,-0 46.44,-34.56 52.74,-39.6c-8.82,16.2 -12.78,25.56 -12.78,29.16c-0,3.96 3.96,7.74 6.84,9.36c1.8,0.9 3.78,1.44 5.94,0.72c10.26,-3.24 42.48,-37.08 51.12,-46.8c0.54,-0.54 -0.36,-1.98 -1.44,-1.08c-7.92,7.38 -39.6,38.16 -49.14,38.88c4.5,-11.34 18.9,-35.1 34.74,-58.86c8.82,-13.14 16.2,-23.76 24.12,-33.66c7.56,-9.72 19.62,-26.64 25.74,-23.76c3.24,1.98 -3.96,-8.46 -14.04,-7.92c-1.62,-0 -3.96,1.44 -6.66,3.6c-4.32,3.6 -9.36,9.36 -14.94,16.38c-8.82,12.06 -19.98,27 -31.14,44.28c-1.62,-1.8 -4.5,-3.06 -7.92,-3.06Zm-5.4,24.48c-21.06,18.36 -49.86,38.34 -52.02,37.08c-1.44,-0.9 10.62,-19.8 26.82,-35.1c9.9,-9.72 21.78,-18.9 29.34,-20.88c2.52,-0.72 5.22,-0.72 7.56,-0l-11.7,18.9Z" style="fill:#fff;fill-rule:nonzero;"/><path d="M608.668,149.935c-0.72,2.7 -1.44,4.86 -1.44,6.66c-0,3.24 3.42,7.02 5.94,8.46c1.26,0.72 2.16,1.08 3.06,1.08c10.8,-0 40.14,-30.06 55.8,-47.16c0.54,-0.54 -0.36,-1.98 -1.26,-1.08c-11.16,10.44 -36.9,35.1 -48.24,38.34c-0,-1.44 0.72,-3.6 1.8,-6.12c5.4,-11.52 21.6,-31.14 22.5,-29.34c0.72,-2.16 -5.4,-12.06 -9,-10.26c-4.5,2.52 -16.2,13.86 -19.44,16.74c-9.36,7.92 -34.56,26.1 -40.5,28.08c-0.54,0.18 -0.9,0.18 -1.26,-0c-1.62,-0.9 11.88,-23.58 28.98,-38.16c11.7,-9.9 24.84,-17.46 35.28,-18c5.4,-0.36 8.82,2.34 8.82,7.74c-0,2.7 -1.08,4.86 -1.98,6.48c-0.18,0.18 0.18,0.36 0.54,0.18c1.8,-2.34 3.42,-5.4 3.42,-8.46c-0,-8.46 -9,-11.34 -15.84,-11.34c-33.12,-0 -74.34,40.14 -74.34,59.76c-0,3.6 4.68,10.44 7.92,12.06c0.36,0.18 1.26,0.54 1.62,0.54c7.56,-0 42.66,-30.24 48.06,-35.64c-3.42,4.5 -8.28,12.78 -10.44,19.44Z" style="fill:#fff;fill-rule:nonzero;"/><path d="M736.108,166.135c10.62,-0 40.32,-30.06 55.98,-47.16c0.54,-0.54 -0.36,-1.98 -1.62,-1.08c-11.52,10.98 -37.8,36.36 -49.5,39.06c-0,-7.92 28.08,-46.98 32.58,-50.58c2.34,-1.98 -3.6,-11.7 -7.56,-11.7c-7.56,-0 -41.76,33.3 -58.68,54.72c-0,-6.3 16.2,-32.22 25.38,-41.94c1.8,-1.8 -4.14,-10.8 -7.74,-10.8c-0.36,-0 -0.72,-0 -1.08,0.18c-7.56,1.62 -46.44,36.72 -57.96,52.02c4.14,-7.02 19.98,-30.6 27.72,-39.42c2.34,-2.88 4.86,-4.68 6.12,-4.5c1.44,0.18 2.16,1.08 2.16,0.36c-0,-4.5 -6.84,-11.52 -11.34,-11.52c-0.54,-0 -1.62,0.18 -2.34,0.9c-1.98,1.62 -4.5,4.14 -7.02,7.2c-9.9,11.7 -20.7,28.26 -28.44,42.84c-4.68,8.28 -5.4,13.14 -5.04,14.4c1.44,5.04 6.12,10.62 11.52,9.36c-2.7,-1.26 -1.8,-4.86 3.24,-10.8c1.26,-1.62 3.24,-3.96 6.3,-7.38c13.14,-14.76 29.88,-31.68 48.06,-42.66c-12.06,10.98 -25.92,36.9 -25.92,43.74c-0,3.6 5.76,9.36 8.28,9.36c5.04,-0 23.76,-31.14 56.52,-53.82c-9.36,8.64 -28.98,38.7 -28.98,48.96c-0,3.42 5.22,10.26 9.36,10.26Z" style="fill:#fff;fill-rule:nonzero;"/><path d="M831.148,100.975c-0.36,3.6 -12.42,16.2 -12.96,16.2c-0.18,-0 0.18,0.72 0.36,0.72c4.86,-0 16.2,-10.8 16.38,-13.32c0.54,-5.22 -1.8,-13.5 -6.84,-13.5c-15.84,-0 -41.76,13.5 -44.64,27.18c-1.62,7.92 9,14.4 10.98,16.92c-6.3,2.52 -32.76,17.64 -33.3,25.38c0.9,3.96 2.88,7.2 6.84,7.2c11.7,-0 35.46,-9.54 37.98,-21.24c0.54,-3.78 -3.96,-9 -6.3,-10.8c19.62,-11.7 55.26,-21.06 53.64,-21.6c-0,-0.54 -0.72,-0.9 -1.08,-0.9c-2.34,-0 -25.38,3.96 -54.18,20.16c-1.8,-1.62 -6.12,-4.5 -5.4,-7.56c2.34,-8.46 30.24,-25.56 38.52,-24.84Zm-36,37.26c-0,6.84 -22.32,18.36 -29.34,20.34c5.22,-5.22 18.54,-14.22 29.34,-20.34Z" style="fill:#fff;fill-rule:nonzero;"/><path d="M847.417,163.635c15.015,-0 27.206,12.19 27.206,27.206c0,15.016 -12.191,27.206 -27.206,27.206c-15.016,0 -27.207,-12.19 -27.207,-27.206c0,-15.016 12.191,-27.206 27.207,-27.206Zm-0,13.603c7.508,-0 13.603,6.095 13.603,13.603c0,7.508 -6.095,13.603 -13.603,13.603c-7.508,0 -13.603,-6.095 -13.603,-13.603c-0,-7.508 6.095,-13.603 13.603,-13.603Z" style="fill:#fff;"/><path d="M274.015,238.589l41.395,0.239l33.795,-16.592l110.922,0l23.089,-19.476l343.218,0l0,-24l-347.248,0l-24.33,19.476l-110.855,0l-33.767,16.389l-31.504,-0c-0,-0 -25.031,-23.129 -24.957,-23.048l-134.121,-0l-45.469,24l173.555,-0l26.277,23.012Z" style="fill:url(#_Linear1);"/></g><defs><linearGradient id="_Linear1" x1="0" y1="0" x2="1" y2="0" gradientUnits="userSpaceOnUse" gradientTransform="matrix(734.719,0,0,734.719,74.1826,212.878)"><stop offset="0" style="stop-color:#ffd917;stop-opacity:1"/><stop offset="1" style="stop-color:#fff;stop-opacity:1"/></linearGradient></defs></svg>