<?xml version="1.0" encoding="UTF-8" standalone="no"?><!DOCTYPE svg PUBLIC "-//W3C//DTD SVG 1.1//EN" "http://www.w3.org/Graphics/SVG/1.1/DTD/svg11.dtd"><svg width="100%" height="100%" viewBox="0 0 353 100" version="1.1" xmlns="http://www.w3.org/2000/svg" xmlns:xlink="http://www.w3.org/1999/xlink" xml:space="preserve" xmlns:serif="http://www.serif.com/" style="fill-rule:evenodd;clip-rule:evenodd;stroke-linejoin:round;stroke-miterlimit:2;"><g><path d="M67.392,45.712c-2.214,-0.357 -4.429,-0.5 -6.786,-0.5c-25.071,0 -56.071,19.5 -54.785,33.357c0.571,5.286 4.928,7.215 10.142,7.072c18.858,-0.357 46.143,-22.5 58.215,-37.786c4.571,0.857 7,1.857 10.714,3.214c0.071,0 0.071,-0.071 0.071,-0.071c-2.142,-1.643 -7.071,-3.5 -9.928,-4.214c2.714,-3.072 17.643,-21.143 17.643,-32.286c-0,-4 -1.929,-7.143 -7.072,-8.357c-1.143,-0.286 -2.428,-0.429 -3.714,-0.429c-16.643,0 -44.643,20.215 -44.429,31.215c0.072,2.5 1.929,3.928 4.286,3.857c1.429,-0 5.143,-0.857 8.857,-3.429c0,0 -4.643,1.429 -7.071,1.429c-1.072,-0 -1.072,-0.643 -1,-1.215c1.214,-7.5 25.143,-30.214 39.857,-30.214c1.143,0 2.214,0.143 3.214,0.429c2.143,0.571 3,2.071 3,4.143c0,8.857 -16.714,28.357 -21.214,33.785Zm-52.571,35.143c-2.643,0 -4.929,-1.214 -5,-3.857c-0.215,-14.571 31.428,-30.643 51.5,-30.643c1.785,0 3.5,0.143 5.071,0.429c-11.857,14.857 -37.357,34.071 -51.571,34.071Z" style="fill:#fff;fill-rule:nonzero;"/><path d="M86.249,55.784c8,-0.215 21.714,-10.5 21.714,-14.929c0,-2 -3.285,-3.643 -4.357,-3.643c-3.071,0 -9.428,2.215 -15.357,7.143c-4.5,3.786 -8.143,8.286 -9.857,12.357c-0.571,1.572 -1,3 -1,4.715c-0,1.928 2.857,4.5 5.071,4.5c9.5,-0 23.715,-13.643 29.072,-18.643c0.214,-0.215 -0.286,-0.572 -0.5,-0.429c-7.214,6 -20.286,15.929 -25.5,15.929c-1.572,-0 -2.214,-0.5 -2.143,-1.357c0.214,-1.858 1.571,-4.143 2.857,-5.643Zm19.429,-16.429c-0.429,2.714 -12.286,14.286 -18.5,15c2.357,-3.786 10.571,-12.428 18.5,-15Z" style="fill:#fff;fill-rule:nonzero;"/><path d="M124.106,25.355c-8,0.929 -15.857,2.929 -15.571,6.143c0.214,2.286 2.643,3.643 3.786,3.643c-1.858,-1.072 2.357,-4.5 9.142,-5.857c-2.642,3.5 -4.714,6.643 -6.642,9.571c-8.786,13.572 -12,20.572 -12,22.714c-0,0.786 0.142,0.929 0.214,1.072c0.428,1.071 2,2.571 2.571,2.857c0.643,0.357 1.357,0.643 2.286,0.286c4.286,-1.572 16.714,-14.572 20.214,-18.572c0.215,-0.214 -0.071,-0.785 -0.5,-0.428c-4.214,3.857 -16.071,15.5 -19.143,15.143c1.715,-4.572 7.072,-13.643 13.286,-23.072c2.857,-4.214 5.214,-7.786 7.857,-11.071c11.929,-1.786 25,-1.857 39.143,-0.643c0.857,0.071 0.572,-0.072 0,-0.214c-10.214,-2.143 -25.286,-2.715 -36.786,-2.143c3.143,-4.072 7.358,-9.786 9.643,-8.715c1.357,0.786 -1.5,-3.357 -5.5,-3.142c-0.643,-0 -1.571,0.571 -2.643,1.428c-1.785,1.429 -3.785,3.714 -9.357,11Z" style="fill:#fff;fill-rule:nonzero;"/><path d="M206.678,10.712c1.143,-1.143 1.928,-1.928 3.428,-2.143c-0.357,-0.714 -2.928,-3.142 -5.285,-3.142c-1.643,-0 -3.143,1.285 -5.715,4c-3.857,4.071 -23.928,24.714 -31.285,32.071l-0.072,0c-9.5,0.357 -35.5,2.429 -35.214,8.286c0.143,3.143 4,5.285 4.071,3.928c-0.143,-1.428 8.572,-6.857 27.572,-8.928c-10.357,9.214 -32,31.928 -47.286,31.928c-3.071,0 -5.286,-1.214 -5.286,-4.357c0,-0.928 0.643,-2.143 1.215,-2.643c-1.215,0 -2.858,1.857 -2.858,4.857c0,5.143 4.643,7.5 8.5,7.5c15.858,0 39.572,-28.357 49.572,-37.714c3.357,-0.357 6.571,-0.428 9.857,-0.428l2.714,-0c-3.214,7 -8.071,19.5 -7.214,26.142c0.214,1.929 2.929,4.143 5.071,4.143c2.215,0 4.786,-1.285 7.358,-3.643c-1.715,0.572 -4,1.715 -6.143,1.715c-0.429,-0 -0.929,-0.072 -1,-0.857c-0.5,-4.715 5.714,-20.858 8.714,-27.143l0.071,-0c6.715,0.5 13.215,1.857 13.215,1.714c-1.143,-1 -7.857,-2.571 -12.572,-3.214c5.643,-13.715 14.5,-27.715 18.572,-32.072Zm-10.429,4.357c-4.143,5.643 -11.857,20.429 -14.786,26.786c-3.5,-0.286 -6.928,-0.428 -10.285,-0.428c23.571,-24.929 24.285,-25.643 25.071,-26.358Z" style="fill:#fff;fill-rule:nonzero;"/><path d="M217.178,37.212c-4.286,0 -9.143,2.286 -14.643,5.929c-7.572,4.928 -14,14.071 -14,17.928c-0,1.643 2.286,4.858 3.571,4.858c3.715,-0 18.429,-13.715 20.929,-15.715c-3.5,6.429 -5.072,10.143 -5.072,11.572c0,1.571 1.572,3.071 2.715,3.714c0.714,0.357 1.5,0.571 2.357,0.286c4.071,-1.286 16.857,-14.715 20.286,-18.572c0.214,-0.214 -0.143,-0.785 -0.572,-0.428c-3.143,2.928 -15.714,15.143 -19.5,15.428c1.786,-4.5 7.5,-13.928 13.786,-23.357c3.5,-5.214 6.428,-9.428 9.571,-13.357c3,-3.857 7.786,-10.571 10.215,-9.429c1.285,0.786 -1.572,-3.357 -5.572,-3.142c-0.643,-0 -1.571,0.571 -2.643,1.428c-1.714,1.429 -3.714,3.714 -5.928,6.5c-3.5,4.786 -7.929,10.714 -12.357,17.572c-0.643,-0.715 -1.786,-1.215 -3.143,-1.215Zm-2.143,9.715c-8.357,7.285 -19.786,15.214 -20.643,14.714c-0.571,-0.357 4.214,-7.857 10.643,-13.929c3.928,-3.857 8.643,-7.5 11.643,-8.285c1,-0.286 2.071,-0.286 3,-0l-4.643,7.5Z" style="fill:#fff;fill-rule:nonzero;"/><path d="M241.535,59.498c-0.286,1.071 -0.572,1.929 -0.572,2.643c0,1.286 1.358,2.786 2.358,3.357c0.5,0.286 0.857,0.429 1.214,0.429c4.286,-0 15.928,-11.929 22.143,-18.715c0.214,-0.214 -0.143,-0.785 -0.5,-0.428c-4.429,4.143 -14.643,13.928 -19.143,15.214c-0,-0.571 0.286,-1.429 0.714,-2.429c2.143,-4.571 8.572,-12.357 8.929,-11.642c0.285,-0.858 -2.143,-4.786 -3.572,-4.072c-1.785,1 -6.428,5.5 -7.714,6.643c-3.714,3.143 -13.714,10.357 -16.071,11.143c-0.215,0.071 -0.358,0.071 -0.5,-0c-0.643,-0.357 4.714,-9.357 11.5,-15.143c4.642,-3.929 9.857,-6.929 14,-7.143c2.142,-0.143 3.5,0.929 3.5,3.072c-0,1.071 -0.429,1.928 -0.786,2.571c-0.072,0.071 0.071,0.143 0.214,0.071c0.714,-0.928 1.357,-2.142 1.357,-3.357c0,-3.357 -3.571,-4.5 -6.285,-4.5c-13.143,0 -29.5,15.929 -29.5,23.715c-0,1.428 1.857,4.142 3.142,4.785c0.143,0.072 0.5,0.215 0.643,0.215c3,-0 16.929,-12 19.072,-14.143c-1.357,1.785 -3.286,5.071 -4.143,7.714Z" style="fill:#fff;fill-rule:nonzero;"/><path d="M292.106,65.927c4.215,-0 16,-11.929 22.215,-18.715c0.214,-0.214 -0.143,-0.785 -0.643,-0.428c-4.572,4.357 -15,14.428 -19.643,15.5c-0,-3.143 11.143,-18.643 12.928,-20.072c0.929,-0.785 -1.428,-4.643 -3,-4.643c-3,0 -16.571,13.215 -23.285,21.715c-0,-2.5 6.428,-12.786 10.071,-16.643c0.714,-0.714 -1.643,-4.286 -3.071,-4.286c-0.143,0 -0.286,0 -0.429,0.072c-3,0.642 -18.428,14.571 -23,20.642c1.643,-2.785 7.929,-12.142 11,-15.642c0.929,-1.143 1.929,-1.858 2.429,-1.786c0.571,0.071 0.857,0.428 0.857,0.143c-0,-1.786 -2.714,-4.572 -4.5,-4.572c-0.214,0 -0.643,0.072 -0.929,0.357c-0.785,0.643 -1.785,1.643 -2.785,2.858c-3.929,4.642 -8.215,11.214 -11.286,17c-1.857,3.285 -2.143,5.214 -2,5.714c0.571,2 2.428,4.214 4.571,3.714c-1.071,-0.5 -0.714,-1.928 1.286,-4.286c0.5,-0.642 1.286,-1.571 2.5,-2.928c5.214,-5.857 11.857,-12.572 19.071,-16.929c-4.785,4.357 -10.285,14.643 -10.285,17.357c-0,1.429 2.285,3.715 3.285,3.715c2,-0 9.429,-12.357 22.429,-21.357c-3.714,3.428 -11.5,15.357 -11.5,19.428c-0,1.357 2.071,4.072 3.714,4.072Z" style="fill:#fff;fill-rule:nonzero;"/><path d="M329.821,40.069c-0.143,1.429 -4.929,6.429 -5.143,6.429c-0.072,0 0.071,0.286 0.143,0.286c1.928,-0 6.428,-4.286 6.5,-5.286c0.214,-2.071 -0.715,-5.357 -2.715,-5.357c-6.285,-0 -16.571,5.357 -17.714,10.786c-0.643,3.142 3.571,5.714 4.357,6.714c-2.5,1 -13,7 -13.214,10.071c0.357,1.572 1.143,2.857 2.714,2.857c4.643,0 14.072,-3.785 15.072,-8.428c0.214,-1.5 -1.572,-3.572 -2.5,-4.286c7.785,-4.643 21.928,-8.357 21.285,-8.571c0,-0.215 -0.285,-0.357 -0.428,-0.357c-0.929,-0 -10.072,1.571 -21.5,8c-0.715,-0.643 -2.429,-1.786 -2.143,-3c0.928,-3.358 12,-10.143 15.286,-9.858Zm-14.286,14.786c-0,2.714 -8.857,7.286 -11.643,8.072c2.071,-2.072 7.357,-5.643 11.643,-8.072Z" style="fill:#fff;fill-rule:nonzero;"/><path d="M336.277,64.934c5.958,0 10.796,4.838 10.796,10.797c-0,5.958 -4.838,10.796 -10.796,10.796c-5.959,-0 -10.797,-4.838 -10.797,-10.796c0,-5.959 4.838,-10.797 10.797,-10.797Zm-0,5.398c2.979,0 5.398,2.419 5.398,5.399c-0,2.979 -2.419,5.398 -5.398,5.398c-2.98,-0 -5.399,-2.419 -5.399,-5.398c0,-2.98 2.419,-5.399 5.399,-5.399Z" style="fill:#fff;"/><path d="M108.736,94.678l16.427,0.095l13.41,-6.584l44.017,0l9.163,-7.729l136.197,0l0,-9.523l-137.797,-0l-9.655,7.728l-43.99,0l-13.399,6.504l-12.502,-0c0,-0 -9.933,-9.178 -9.904,-9.147l-53.222,0l-18.043,9.524l68.871,0l10.427,9.132Z" style="fill:url(#_Linear1);"/></g><defs><linearGradient id="_Linear1" x1="0" y1="0" x2="1" y2="0" gradientUnits="userSpaceOnUse" gradientTransform="matrix(291.555,0,0,291.555,29.4376,84.4755)"><stop offset="0" style="stop-color:#ffd917;stop-opacity:1"/><stop offset="1" style="stop-color:#fff;stop-opacity:1"/></linearGradient></defs></svg>